# xmcd
#
# Track frame offsets:
#	150
#	4502
#	22567
#	38504
#	56622
#	75485
#	98073
#	116810
#	141984
#	162390
#	180160
#	201348
#
# Disc length: 2893 seconds
#
# Revision: 0
# Processed by: cddbd v1.5.2PL0 Copyright (c) Steve Scherf et al.
# Submitted via: EasyCDDAExtractor 16.0.4.1
#
DISCID=870b4b0c
DTITLE=Proven Ones - You Ain't Done
DYEAR=2020
DGENRE=Blues
TTITLE0=Get Love (Intro)
TTITLE1=Get Love
TTITLE2=Gone To Stay
TTITLE3=You Ain't Done
TTITLE4=Already Gone
TTITLE5=Whom My Soul Loves
TTITLE6=Milinda
TTITLE7=Nothing Left To Give
TTITLE8=She'll Never Know
TTITLE9=I Ain't Good For Nothing
TTITLE10=Fallen
TTITLE11=Favourite Dress
EXTD=
EXTT0=
EXTT1=
EXTT2=
EXTT3=
EXTT4=
EXTT5=
EXTT6=
EXTT7=
EXTT8=
EXTT9=
EXTT10=
EXTT11=
PLAYORDER=
